<svg width="70" height="70" viewBox="0 0 70 70" fill="none" xmlns="http://www.w3.org/2000/svg">
<g clip-path="url(#clip0_33_156)">
<path d="M42.808 46.8671C44.4519 45.2527 46.0272 43.7071 47.6026 42.1615C47.8594 41.9039 48.1162 41.6463 48.3731 41.3887C49.332 40.4269 50.0341 40.2896 51.2669 40.8391C55.0341 42.505 58.8012 44.188 62.5512 45.871C64.4861 46.7297 66.421 47.5884 68.356 48.4642C69.8457 49.134 70.2567 49.9755 69.8457 51.5211C68.6813 55.9004 67.4998 60.2969 66.3354 64.6762C65.6334 67.321 64.0238 69.2101 61.3526 69.7768C59.8286 70.1031 58.0649 70.1031 56.5752 69.6909C45.5478 66.5997 35.6505 61.3102 26.9005 53.8739C16.9005 45.3386 8.98954 35.2061 3.90392 22.9785C2.58543 19.8013 1.47241 16.5383 0.41077 13.2581C-0.667998 9.94362 0.393646 6.57758 3.01351 4.77434C3.78406 4.24195 4.70871 3.86413 5.61625 3.60653C9.93132 2.42154 14.2806 1.30525 18.6128 0.154611C20.2224 -0.274731 21.0272 0.137438 21.7121 1.68307C24.2121 7.33322 26.7121 12.9834 29.2121 18.6335C29.8115 19.9902 29.6916 20.66 28.6471 21.7076C26.8663 23.5108 25.0854 25.3141 23.2361 27.2032C28.7841 34.7253 35.3594 41.2684 42.808 46.8671ZM65.5306 51.7444C65.3936 51.6757 65.308 51.607 65.2053 51.5555C60.4621 49.4431 55.719 47.3308 50.993 45.2012C50.6162 45.0295 50.4279 45.1325 50.171 45.3901C48.3731 47.2105 46.558 49.0138 44.743 50.817C43.7841 51.7616 42.8423 51.8303 41.7293 51.0746C40.7704 50.422 39.7943 49.7866 38.8868 49.0653C31.3868 43.106 24.6402 36.4083 19.1779 28.474C18.2532 27.1345 18.3217 26.2586 19.4861 25.0908C21.2156 23.3563 22.9279 21.6217 24.6573 19.9044C24.9827 19.5781 25.0683 19.3376 24.8628 18.9083C24.3491 17.8263 23.8697 16.7101 23.3902 15.5938C21.832 12.0732 20.2738 8.55255 18.7156 5.01477C18.5957 4.72282 18.5272 4.41369 18.0478 4.55108C14.1436 5.59867 10.2224 6.6291 6.30118 7.67669C5.39365 7.91712 4.74296 8.5182 4.4005 9.39406C4.04091 10.3043 4.07515 11.2145 4.34913 12.1419C7.19159 21.845 11.6265 30.741 17.9279 38.658C25.4621 48.1036 34.469 55.7459 45.3594 61.0697C49.4519 63.079 53.7327 64.6247 58.1334 65.8612C60.3252 66.4794 61.8834 65.5005 62.4827 63.3195C62.8594 61.9456 63.219 60.5889 63.5786 59.215C64.2121 56.7419 64.88 54.2518 65.5306 51.7444Z" fill="white"/>
<path d="M36.1641 8.19188C42.4654 8.55253 48.0305 10.7508 52.7565 14.9927C57.2428 19.0285 60.0853 24.026 61.1983 29.9681C61.4894 31.5309 61.5922 33.1453 61.6778 34.7252C61.7463 36.0133 60.8559 36.9235 59.6743 36.9407C58.4928 36.9578 57.6196 36.0991 57.5853 34.7939C57.4997 30.7409 56.5408 26.9456 54.4517 23.4593C51.1812 17.9809 46.438 14.4603 40.2565 12.9318C38.938 12.6055 37.5682 12.5197 36.2154 12.3479C35.7189 12.2792 35.2052 12.2964 34.7257 12.2277C33.6983 12.0903 32.962 11.1973 32.9963 10.184C33.0134 9.15361 33.7839 8.3121 34.8113 8.20905C35.2565 8.15753 35.7017 8.19188 36.1641 8.19188Z" fill="white"/>
<path d="M53.4417 34.0726C53.4417 34.4848 53.5102 34.897 53.4246 35.3091C53.2362 36.3567 52.2944 37.0265 51.2328 36.9406C50.1883 36.8548 49.4177 36.0476 49.3835 34.9141C49.3321 33.1624 49.0924 31.4451 48.4246 29.8307C46.3355 24.7301 42.6198 21.656 37.1917 20.7115C36.404 20.5741 35.5992 20.5741 34.8115 20.4711C33.6643 20.3337 32.8937 19.4063 32.9622 18.3072C33.0478 17.2081 33.9211 16.3837 35.0855 16.4009C40.1883 16.4696 44.5547 18.3072 48.1335 21.9137C51.4554 25.2797 53.202 29.367 53.4417 34.0726Z" fill="white"/>
</g>
<defs>
<clipPath id="clip0_33_156">
<rect width="70" height="70" fill="white"/>
</clipPath>
</defs>
</svg>
