<svg width="70" height="70" viewBox="0 0 70 70" fill="none" xmlns="http://www.w3.org/2000/svg">
<rect x="0.5" y="0.5" width="69" height="69" stroke="white"/>
<g clip-path="url(#clip0_37_225)">
<path d="M18 35.4829C18 32.934 18 30.3851 18 27.8362C18.0086 24.432 19.3685 21.7121 22.1398 19.7277C23.7735 18.5474 25.6381 18.0085 27.6481 18.0085C32.8741 18 38.1002 17.9914 43.3262 18.0085C47.6029 18.0256 51.1953 20.6515 52.5296 24.7057C52.846 25.6723 52.9743 26.6816 52.9829 27.6994C52.9829 32.8912 52.9914 38.0831 52.9829 43.2749C52.9743 47.5772 50.3912 51.1525 46.3113 52.5296C45.3363 52.8631 44.3184 52.9914 43.292 52.9914C38.1002 52.9914 32.9084 53.0342 27.7165 52.9743C23.5682 52.923 20.5831 50.9472 18.8126 47.1923C18.2138 45.9435 18 44.6092 18 43.2407C18 40.6576 18 38.066 18 35.4829ZM45.0797 35.4914C45.0797 30.2141 40.8201 25.9374 35.5086 25.9032C30.2483 25.869 25.9032 30.2055 25.9032 35.4914C25.9032 40.7688 30.1628 45.0454 35.4743 45.0796C40.7346 45.1139 45.0711 40.7859 45.0797 35.4914ZM45.6613 22.422C44.0789 22.4135 42.7446 23.7307 42.7361 25.3216C42.7275 26.8954 44.0533 28.2297 45.6442 28.2468C47.218 28.2639 48.5523 26.9382 48.5608 25.3387C48.5694 23.7478 47.2693 22.4306 45.6613 22.422Z" fill="white"/>
<path d="M43.0101 35.4914C43.0101 39.6483 39.6315 43.0268 35.4746 43.0182C31.3263 43.0097 27.9734 39.6483 27.9648 35.4999C27.9648 31.343 31.3434 27.9645 35.5003 27.973C39.6486 27.9816 43.0101 31.343 43.0101 35.4914Z" fill="white"/>
<path d="M45.661 24.492C46.1229 24.492 46.4992 24.8769 46.4907 25.3473C46.4821 25.7921 46.1058 26.1684 45.661 26.177C45.2077 26.1855 44.8057 25.7835 44.8057 25.3302C44.8057 24.8769 45.1991 24.4834 45.661 24.492Z" fill="white"/>
</g>
<defs>
<clipPath id="clip0_37_225">
<rect width="34.9829" height="35" fill="white" transform="translate(18 18)"/>
</clipPath>
</defs>
</svg>
