<?xml version="1.0" encoding="utf-8"?>
<!-- Generator: Adobe Illustrator 25.0.0, SVG Export Plug-In . SVG Version: 6.00 Build 0)  -->
<svg version="1.1" id="Layer_1" xmlns="http://www.w3.org/2000/svg" xmlns:xlink="http://www.w3.org/1999/xlink" x="0px" y="0px"
	 viewBox="0 0 1080 1080" style="enable-background:new 0 0 1080 1080;" xml:space="preserve">
<g>
	<g>
		<path d="M425.05,1013.05c-7.5,0-14.94-3.35-19.91-9.72c-8.55-11-6.58-26.82,4.4-35.39L991.93,514.3l-296.2-386.7L122.7,569.06
			c-11.03,8.5-26.84,6.44-35.36-4.56c-8.5-11.03-6.44-26.89,4.6-35.36L685,72.25c5.3-4.07,11.93-6.07,18.67-5.02
			c6.63,0.85,12.66,4.33,16.73,9.65l326.78,426.62c8.42,11,6.4,26.73-4.51,35.23l-602.13,469.01
			C435.92,1011.31,430.47,1013.05,425.05,1013.05z"/>
	</g>
	<g>
		<path d="M612.62,583.38H237.43c-13.92,0-25.22-11.29-25.22-25.22s11.29-25.22,25.22-25.22h355.01l71.23-316.17
			c3.04-13.59,16.42-22.23,30.14-19.04c13.58,3.05,22.11,16.55,19.04,30.14l-75.65,335.84C634.63,575.2,624.41,583.38,612.62,583.38
			z"/>
	</g>
	<g>
		<path d="M902.12,514.79c-0.34,0-0.69,0-1.03-0.03l-197.7-8.04c-13.92-0.56-24.74-12.28-24.18-26.2
			c0.57-13.89,12.71-25.05,26.22-24.16l197.7,8.04c13.92,0.56,24.74,12.28,24.18,26.2C926.74,504.15,915.58,514.79,902.12,514.79z"
			/>
	</g>
	<g>
		<path d="M52.86,815.37c-7.21,0-14.35-3.05-19.34-9c-8.95-10.67-7.55-26.59,3.12-35.52l175.5-147.25c10.65-9,26.58-7.52,35.52,3.09
			c8.95,10.67,7.55,26.59-3.12,35.52L69.05,809.46C64.32,813.43,58.58,815.37,52.86,815.37z"/>
	</g>
	<g>
		<path d="M181.98,859.76c-7.21,0-14.35-3.05-19.34-9c-8.95-10.67-7.55-26.59,3.12-35.52l175.49-147.25
			c10.65-8.96,26.58-7.55,35.52,3.09c8.95,10.67,7.55,26.59-3.12,35.52L198.16,853.85C193.45,857.82,187.69,859.76,181.98,859.76z"
			/>
	</g>
	<g>
		<path d="M309.05,902.11c-7.21,0-14.35-3.05-19.34-9c-8.95-10.67-7.55-26.59,3.12-35.52l175.5-147.25
			c10.65-9,26.58-7.58,35.52,3.09s7.55,26.59-3.12,35.52L325.24,896.2C320.51,900.18,314.77,902.11,309.05,902.11z"/>
	</g>
</g>
</svg>
