<svg width="24" height="24" viewBox="0 0 24 24" fill="none" xmlns="http://www.w3.org/2000/svg">
<path d="M16.001 16.5256L18.0677 14.5225C18.346 14.2561 18.6982 14.0737 19.0814 13.9975C19.4646 13.9213 19.8625 13.9546 20.2265 14.0933L22.7453 15.068C23.1132 15.2128 23.4287 15.4598 23.652 15.7781C23.8753 16.0964 23.9964 16.4716 24 16.8565V21.3277C23.9979 21.5895 23.9411 21.8482 23.8331 22.0882C23.7251 22.3282 23.5681 22.5445 23.3715 22.7241C23.175 22.9037 22.943 23.043 22.6895 23.1334C22.436 23.2238 22.1662 23.2636 21.8965 23.2503C4.24704 22.1862 0.685788 7.69945 0.0122868 2.15516C-0.0189776 1.88289 0.0095878 1.6073 0.0961037 1.3465C0.18262 1.08571 0.325125 0.845624 0.514246 0.642045C0.703366 0.438465 0.934815 0.276004 1.19337 0.165349C1.45192 0.0546951 1.73171 -0.00164465 2.01434 3.65468e-05H6.47052C6.86817 0.00117741 7.25637 0.1176 7.5852 0.33433C7.91403 0.55106 8.16845 0.858186 8.31573 1.2162L9.32136 3.65748C9.46922 4.00898 9.50694 4.39491 9.42982 4.76707C9.3527 5.13922 9.16415 5.48111 8.88774 5.75001L6.82111 7.75311C6.82111 7.75311 8.01127 15.5598 16.001 16.5256Z" fill="#BE2430"/>
</svg>
