<svg width="70" height="70" viewBox="0 0 70 70" fill="none" xmlns="http://www.w3.org/2000/svg">
<path d="M34.9998 0C21.021 0 9.64844 11.3725 9.64844 25.3512C9.64844 42.6992 32.3354 68.167 33.3013 69.2427C34.2086 70.2532 35.7926 70.2514 36.6982 69.2427C37.6642 68.167 60.3511 42.6992 60.3511 25.3512C60.3509 11.3725 48.9785 0 34.9998 0ZM34.9998 64.2208C27.3645 55.1511 14.2137 37.2575 14.2137 25.3515C14.2137 13.8898 23.5382 4.56531 34.9998 4.56531C46.4613 4.56531 55.7858 13.8898 55.7858 25.3513C55.7857 37.2579 42.637 55.1482 34.9998 64.2208Z" fill="white"/>
<path d="M34.9999 12.5964C27.9668 12.5964 22.2451 18.3183 22.2451 25.3513C22.2451 32.3844 27.9669 38.1062 34.9999 38.1062C42.0328 38.1062 47.7545 32.3844 47.7545 25.3513C47.7545 18.3183 42.0328 12.5964 34.9999 12.5964ZM34.9999 33.5409C30.4841 33.5409 26.8104 29.8672 26.8104 25.3513C26.8104 20.8355 30.4842 17.1617 34.9999 17.1617C39.5156 17.1617 43.1893 20.8355 43.1893 25.3513C43.1893 29.8672 39.5156 33.5409 34.9999 33.5409Z" fill="white"/>
</svg>
