<svg width="37" height="36" viewBox="0 0 37 36" fill="none" xmlns="http://www.w3.org/2000/svg">
<path d="M18.5 2.25C9.56074 2.25 2.3125 9.30234 2.3125 18C2.3125 26.6977 9.56074 33.75 18.5 33.75C27.4393 33.75 34.6875 26.6977 34.6875 18C34.6875 9.30234 27.4393 2.25 18.5 2.25ZM26.2794 14.1223C26.2902 14.2875 26.2902 14.4598 26.2902 14.6285C26.2902 19.7895 22.2506 25.7344 14.8687 25.7344C12.5923 25.7344 10.4821 25.091 8.70439 23.9836C9.02959 24.0188 9.34033 24.0328 9.67275 24.0328C11.5517 24.0328 13.2788 23.4141 14.6555 22.3664C12.8922 22.3313 11.4107 21.2063 10.9049 19.6594C11.5228 19.7473 12.0792 19.7473 12.7151 19.5891C11.8072 19.4096 10.9911 18.9298 10.4056 18.2313C9.82002 17.5327 9.50107 16.6585 9.50293 15.757V15.7078C10.0341 15.9996 10.6592 16.1789 11.3132 16.2035C10.7634 15.847 10.3125 15.364 10.0005 14.7974C9.68852 14.2307 9.52506 13.5979 9.52461 12.9551C9.52461 12.2273 9.71973 11.5629 10.0702 10.9863C11.078 12.1934 12.3355 13.1806 13.7611 13.8838C15.1866 14.587 16.7483 14.9905 18.3446 15.068C17.7773 12.4137 19.8152 10.2656 22.265 10.2656C23.4213 10.2656 24.4619 10.7367 25.1954 11.4961C26.1023 11.3309 26.9695 11.0004 27.7428 10.5574C27.4429 11.4609 26.8142 12.2238 25.9795 12.7055C26.7889 12.6211 27.5693 12.4031 28.292 12.0973C27.7464 12.8777 27.0635 13.5703 26.2794 14.1223Z" fill="white"/>
</svg>
