<svg width="70" height="70" viewBox="0 0 70 70" fill="none" xmlns="http://www.w3.org/2000/svg">
<rect x="0.5" y="0.5" width="69" height="69" stroke="white"/>
<g clip-path="url(#clip0_36_216)">
<path d="M37.7797 53C35.6328 53 33.5141 53 31.3672 53C31.3672 47.6892 31.3672 42.3785 31.3672 37.0395C29.5593 37.0395 27.7797 37.0395 26 37.0395C26 34.9491 26 32.9152 26 30.8248C27.7797 30.8248 29.5593 30.8248 31.3672 30.8248C31.3672 30.6553 31.3672 30.5141 31.3672 30.3729C31.3672 28.7344 31.339 27.1243 31.3955 25.4859C31.4802 23.5367 32.0452 21.757 33.4011 20.3164C34.5593 19.0734 36.0282 18.3955 37.6949 18.1412C39.5593 17.8587 41.4237 18.0565 43.2881 18.1695C43.5706 18.1977 43.8531 18.226 44.1356 18.2542C44.1356 20.1186 44.1356 21.9548 44.1356 23.8192C43.8531 23.8192 43.5989 23.8192 43.3446 23.8192C42.2712 23.8474 41.1977 23.8192 40.1243 23.8757C38.6836 23.9604 37.8927 24.6949 37.8079 26.1356C37.7232 27.661 37.7797 29.2147 37.7797 30.7966C38.7966 30.7966 39.8136 30.7966 40.8305 30.7966C41.8475 30.7966 42.8644 30.7966 43.9096 30.7966C43.6271 32.887 43.3729 34.9491 43.1186 37.0113C41.339 37.0113 39.5593 37.0113 37.7797 37.0113C37.7797 42.3785 37.7797 47.661 37.7797 53Z" fill="white"/>
</g>
<defs>
<clipPath id="clip0_36_216">
<rect width="18.1356" height="35" fill="white" transform="translate(26 18)"/>
</clipPath>
</defs>
</svg>
