<?xml version="1.0" encoding="utf-8"?>
<!-- Generator: Adobe Illustrator 25.0.0, SVG Export Plug-In . SVG Version: 6.00 Build 0)  -->
<svg version="1.1" id="Layer_1" xmlns="http://www.w3.org/2000/svg" xmlns:xlink="http://www.w3.org/1999/xlink" x="0px" y="0px"
	 viewBox="0 0 1080 1080" style="enable-background:new 0 0 1080 1080;" xml:space="preserve">
<g>
	<g>
		<path d="M975.97,392.98H850.35c-7.44,0-13.47-6.03-13.47-13.47s6.03-13.47,13.47-13.47h125.62c6.23,0,12.11-2.45,16.56-6.91
			c4.46-4.46,6.91-10.34,6.91-16.57c0-12.94-10.53-23.47-23.47-23.47H104.03c-6.23,0-12.11,2.45-16.57,6.91
			c-4.45,4.45-6.9,10.34-6.9,16.57c0,12.95,10.53,23.48,23.47,23.48h701.68c7.44,0,13.47,6.03,13.47,13.47s-6.03,13.47-13.47,13.47
			H104.03c-27.8,0-50.42-22.62-50.42-50.42c0-13.43,5.25-26.08,14.8-35.61c9.54-9.55,22.19-14.8,35.62-14.8h871.94
			c27.8,0,50.42,22.62,50.42,50.42c0,13.42-5.25,26.08-14.8,35.62C1002.05,387.73,989.4,392.98,975.97,392.98z"/>
	</g>
	<g>
		<path d="M986.13,450.25H93.87c-7.44,0-13.47-6.03-13.47-13.47v-57.27c0-7.44,6.03-13.47,13.47-13.47s13.47,6.03,13.47,13.47v43.8
			h865.32v-45.26c0-7.44,6.03-13.47,13.47-13.47s13.47,6.03,13.47,13.47v58.73C999.6,444.22,993.57,450.25,986.13,450.25z"/>
	</g>
	<g>
		<path d="M186.81,516.76h-59.81c-25.7,0-46.6-20.91-46.6-46.61v-29.21c0-7.44,6.03-13.47,13.47-13.47s13.47,6.03,13.47,13.47v29.21
			c0,10.84,8.82,19.67,19.66,19.67h59.81c10.84,0,19.67-8.82,19.67-19.67v-29.21c0-7.44,6.03-13.47,13.47-13.47
			c7.44,0,13.47,6.03,13.47,13.47v29.21C233.42,495.85,212.51,516.76,186.81,516.76z"/>
	</g>
	<g>
		<path d="M371.08,516.76h-59.8c-25.7,0-46.61-20.91-46.61-46.61v-29.21c0-7.44,6.03-13.47,13.47-13.47s13.47,6.03,13.47,13.47
			v29.21c0,10.84,8.82,19.67,19.67,19.67h59.8c10.84,0,19.67-8.82,19.67-19.67v-29.21c0-7.44,6.03-13.47,13.47-13.47
			s13.47,6.03,13.47,13.47v29.21C417.69,495.85,396.78,516.76,371.08,516.76z"/>
	</g>
	<g>
		<path d="M768.72,516.76h-59.81c-25.7,0-46.6-20.91-46.6-46.61v-29.21c0-7.44,6.03-13.47,13.47-13.47s13.47,6.03,13.47,13.47v29.21
			c0,10.84,8.82,19.67,19.66,19.67h59.81c10.84,0,19.67-8.82,19.67-19.67v-29.21c0-7.44,6.03-13.47,13.47-13.47
			s13.47,6.03,13.47,13.47v29.21C815.33,495.85,794.42,516.76,768.72,516.76z"/>
	</g>
	<g>
		<path d="M952.99,516.76h-59.81c-25.7,0-46.6-20.91-46.6-46.61v-29.21c0-7.44,6.03-13.47,13.47-13.47s13.47,6.03,13.47,13.47v29.21
			c0,10.84,8.82,19.67,19.66,19.67h59.81c10.84,0,19.67-8.82,19.67-19.67v-29.21c0-7.44,6.03-13.47,13.47-13.47
			s13.47,6.03,13.47,13.47v29.21C999.6,495.85,978.69,516.76,952.99,516.76z"/>
	</g>
	<g>
		<path d="M986.13,961.5c-7.44,0-13.47-6.03-13.47-13.47v-29.21c0-10.84-8.82-19.67-19.67-19.67h-59.81
			c-10.84,0-19.66,8.82-19.66,19.67v29.21c0,7.44-6.03,13.47-13.47,13.47s-13.47-6.03-13.47-13.47v-29.21
			c0-25.7,20.91-46.61,46.6-46.61h59.81c25.7,0,46.61,20.91,46.61,46.61v29.21C999.6,955.47,993.57,961.5,986.13,961.5z"/>
	</g>
	<g>
		<path d="M801.86,961.5c-7.44,0-13.47-6.03-13.47-13.47v-29.21c0-10.84-8.82-19.67-19.67-19.67h-59.81
			c-10.84,0-19.66,8.82-19.66,19.67v29.21c0,7.44-6.03,13.47-13.47,13.47s-13.47-6.03-13.47-13.47v-29.21
			c0-25.7,20.91-46.61,46.6-46.61h59.81c25.7,0,46.61,20.91,46.61,46.61v29.21C815.33,955.47,809.3,961.5,801.86,961.5z"/>
	</g>
	<g>
		<path d="M404.22,961.5c-7.44,0-13.47-6.03-13.47-13.47v-29.21c0-10.84-8.82-19.67-19.67-19.67h-59.8
			c-10.84,0-19.67,8.82-19.67,19.67v29.21c0,7.44-6.03,13.47-13.47,13.47s-13.47-6.03-13.47-13.47v-29.21
			c0-25.7,20.91-46.61,46.61-46.61h59.8c25.7,0,46.61,20.91,46.61,46.61v29.21C417.69,955.47,411.66,961.5,404.22,961.5z"/>
	</g>
	<g>
		<path d="M219.95,961.5c-7.44,0-13.47-6.03-13.47-13.47v-29.21c0-10.84-8.82-19.67-19.67-19.67h-59.81
			c-10.84,0-19.66,8.82-19.66,19.67v29.21c0,7.44-6.03,13.47-13.47,13.47s-13.47-6.03-13.47-13.47v-29.21
			c0-25.7,20.91-46.61,46.6-46.61h59.81c25.7,0,46.61,20.91,46.61,46.61v29.21C233.42,955.47,227.39,961.5,219.95,961.5z"/>
	</g>
	<g>
		<path d="M1016.84,1028H63.16c-7.44,0-13.47-6.03-13.47-13.47v-19.86c0-33.15,26.97-60.12,60.12-60.12h860.4
			c33.15,0,60.11,26.97,60.11,60.12v19.86C1030.31,1021.97,1024.28,1028,1016.84,1028z M76.63,1001.06h926.74v-6.39
			c0-18.29-14.88-33.18-33.17-33.18H109.8c-18.29,0-33.18,14.88-33.18,33.18V1001.06z"/>
	</g>
	<g>
		<path d="M127.01,899.15c-7.44,0-13.47-6.03-13.47-13.47V503.29c0-7.44,6.03-13.47,13.47-13.47s13.47,6.03,13.47,13.47v382.39
			C140.48,893.12,134.44,899.15,127.01,899.15z"/>
	</g>
	<g>
		<path d="M186.81,785.54c-7.44,0-13.47-6.03-13.47-13.47V503.29c0-7.44,6.03-13.47,13.47-13.47c7.44,0,13.47,6.03,13.47,13.47
			v268.79C200.28,779.51,194.25,785.54,186.81,785.54z"/>
	</g>
	<g>
		<path d="M186.81,899.15c-7.44,0-13.47-6.03-13.47-13.47v-58.19c0-7.44,6.03-13.47,13.47-13.47c7.44,0,13.47,6.03,13.47,13.47
			v58.19C200.28,893.12,194.25,899.15,186.81,899.15z"/>
	</g>
	<g>
		<path d="M311.28,899.15c-7.44,0-13.47-6.03-13.47-13.47V503.29c0-7.44,6.03-13.47,13.47-13.47c7.44,0,13.47,6.03,13.47,13.47
			v382.39C324.75,893.12,318.72,899.15,311.28,899.15z"/>
	</g>
	<g>
		<path d="M371.08,899.15c-7.44,0-13.47-6.03-13.47-13.47V503.29c0-7.44,6.03-13.47,13.47-13.47s13.47,6.03,13.47,13.47v382.39
			C384.55,893.12,378.52,899.15,371.08,899.15z"/>
	</g>
	<g>
		<path d="M708.92,899.15c-7.44,0-13.47-6.03-13.47-13.47V503.29c0-7.44,6.03-13.47,13.47-13.47s13.47,6.03,13.47,13.47v382.39
			C722.39,893.12,716.35,899.15,708.92,899.15z"/>
	</g>
	<g>
		<path d="M768.72,899.15c-7.44,0-13.47-6.03-13.47-13.47V503.29c0-7.44,6.03-13.47,13.47-13.47s13.47,6.03,13.47,13.47v382.39
			C782.19,893.12,776.16,899.15,768.72,899.15z"/>
	</g>
	<g>
		<path d="M952.99,899.15c-7.44,0-13.47-6.03-13.47-13.47V503.29c0-7.44,6.03-13.47,13.47-13.47s13.47,6.03,13.47,13.47v382.39
			C966.46,893.12,960.43,899.15,952.99,899.15z"/>
	</g>
	<g>
		<path d="M893.19,577.72c-7.44,0-13.47-6.03-13.47-13.47v-60.96c0-7.44,6.03-13.47,13.47-13.47s13.47,6.03,13.47,13.47v60.96
			C906.66,571.69,900.62,577.72,893.19,577.72z"/>
	</g>
	<g>
		<path d="M893.19,899.15c-7.44,0-13.47-6.03-13.47-13.47V611.36c0-7.44,6.03-13.47,13.47-13.47s13.47,6.03,13.47,13.47v274.33
			C906.66,893.12,900.62,899.15,893.19,899.15z"/>
	</g>
	<g>
		<path d="M629.37,634.52h-35.33c-7.44,0-13.47-6.03-13.47-13.47s6.03-13.47,13.47-13.47h35.33c10.14,0,18.4-8.25,18.4-18.4
			s-8.25-18.39-18.4-18.39H444.4c-10.14,0-18.4,8.25-18.4,18.39s8.25,18.4,18.4,18.4h101.83c7.44,0,13.47,6.03,13.47,13.47
			s-6.03,13.47-13.47,13.47H444.4c-25,0-45.34-20.34-45.34-45.34c0-25,20.34-45.33,45.34-45.33h184.96c25,0,45.34,20.34,45.34,45.33
			C674.7,614.19,654.37,634.52,629.37,634.52z"/>
	</g>
	<g>
		<path d="M444.4,961.5c-7.44,0-13.47-6.03-13.47-13.47V621.05c0-7.44,6.03-13.47,13.47-13.47c7.44,0,13.47,6.03,13.47,13.47v326.98
			C457.87,955.47,451.84,961.5,444.4,961.5z"/>
	</g>
	<g>
		<path d="M629.37,961.5c-7.44,0-13.47-6.03-13.47-13.47V621.05c0-7.44,6.03-13.47,13.47-13.47s13.47,6.03,13.47,13.47v326.98
			C642.84,955.47,636.8,961.5,629.37,961.5z"/>
	</g>
	<g>
		<path d="M964.87,311.71c-2.19,0-4.4-0.53-6.46-1.66L540.1,80.88L133.62,309.97c-6.47,3.66-14.7,1.36-18.35-5.12
			c-3.65-6.48-1.36-14.7,5.12-18.35l413-232.77c4.06-2.29,9-2.32,13.09-0.08l424.88,232.77c6.52,3.57,8.91,11.76,5.34,18.28
			C974.25,309.17,969.64,311.71,964.87,311.71z"/>
	</g>
	<g>
		<path d="M329.42,275.68c-4.74,0-9.33-2.51-11.79-6.95c-3.6-6.51-1.26-14.7,5.25-18.31l207.47-115c4.02-2.22,8.9-2.26,12.95-0.06
			l201.94,109.46c6.54,3.54,8.97,11.72,5.42,18.26c-3.54,6.54-11.72,8.96-18.26,5.42L536.95,162.57L335.94,273.99
			C333.87,275.14,331.63,275.68,329.42,275.68z"/>
	</g>
</g>
</svg>
