<?xml version="1.0" encoding="utf-8"?>
<!-- Generator: Adobe Illustrator 25.0.0, SVG Export Plug-In . SVG Version: 6.00 Build 0)  -->
<svg version="1.1" id="Layer_1" xmlns="http://www.w3.org/2000/svg" xmlns:xlink="http://www.w3.org/1999/xlink" x="0px" y="0px"
	 viewBox="0 0 1080 1080" style="enable-background:new 0 0 1080 1080;" xml:space="preserve">
<g>
	<g>
		<path d="M539.89,1030.1c-8.62-9.9-16.88-19.24-24.97-28.71c-68.09-79.75-132.77-162.14-191.89-248.8
			c-40.85-59.88-79.07-121.34-109.57-187.28c-16.02-34.64-29.61-70.13-36.95-107.78c-4.53-23.27-4.61-46.64-2.74-70.16
			c3.54-44.6,14.47-87.33,34.27-127.4C260.1,154.68,343.41,87.67,457.44,59.53c43.26-10.67,87.31-12.03,131.49-6.26
			c152.55,19.94,277.71,135.62,310.19,286.5c6.48,30.12,9.57,60.54,7.71,91.29c-1.61,26.59-8.53,52.14-17.23,77.19
			c-18.08,52.11-43.44,100.75-71.38,148.11c-45.86,77.74-97.71,151.42-153.55,222.21c-38.58,48.91-78.94,96.41-118.52,144.52
			C544.37,1025.28,542.4,1027.31,539.89,1030.1z M539.74,964.04c1.54-1.62,2.5-2.52,3.34-3.53c20.06-24.05,40.42-47.86,60.09-72.23
			c59.14-73.29,115-148.96,164.19-229.37c29.21-47.76,55.99-96.77,75.04-149.63c8.88-24.64,16.23-49.77,17.43-76.07
			c2.4-52.33-8.16-102.22-30.12-149.72c-63.7-137.81-215.57-213.07-361.8-177.82c-97.29,23.45-168.25,81.54-214.02,170.31
			c-18.26,35.42-28.66,73.33-32.69,112.92c-1.99,19.57-2.59,39.23,0.28,58.82c4.71,32.18,15.3,62.58,28.11,92.28
			c27.61,64,63.9,123.11,102.68,180.77c47.83,71.11,100.08,138.9,154.83,204.79C517.73,938.34,528.61,950.92,539.74,964.04z"/>
		<path d="M386.93,387.01c-0.01-84.66,68.49-153.07,153.19-152.96c84.53,0.1,152.83,68.37,152.86,152.79
			c0.03,84.69-68.38,153.27-152.94,153.3C455.46,540.17,386.95,471.65,386.93,387.01z M539.82,502.43
			c61.94,0.15,112.96-50.04,113.16-111.35c0.21-63.76-49.88-114.73-112.85-114.84c-62.1-0.11-113.03,50.53-113.18,112.53
			C426.79,451.77,476.95,502.27,539.82,502.43z"/>
	</g>
</g>
</svg>
