<?xml version="1.0" encoding="utf-8"?>
<!-- Generator: Adobe Illustrator 25.0.0, SVG Export Plug-In . SVG Version: 6.00 Build 0)  -->
<svg version="1.1" id="Layer_1" xmlns="http://www.w3.org/2000/svg" xmlns:xlink="http://www.w3.org/1999/xlink" x="0px" y="0px"
	 viewBox="0 0 1080 1080" style="enable-background:new 0 0 1080 1080;" xml:space="preserve">
<g>
	<g>
		<path d="M709.82,1035.08c-21.69,0-43.39-4.5-63.69-13.64c-40.64-18.3-80.79-39.09-119.33-61.79
			c-83.38-49.17-161.08-108.36-230.94-175.96C235.24,723.7,182.4,656.71,138.53,584.3c-24.63-40.64-46.67-83.43-65.46-127.18
			c-24.51-57-12.27-123.27,31.17-168.86l7.73-8.12c30.23-31.69,72.57-48.9,116.41-48.62c43.78,0.78,85.54,20.04,114.58,52.81
			l29.72,33.53c39.37,44.45,50.32,106.32,28.59,161.51l-24.02,61.08c-7.2,18.3-27.85,27.31-46.15,20.11s-27.31-27.86-20.11-46.15
			l24.02-61.1c11.87-30.16,5.89-63.97-15.61-88.23l-29.72-33.53c-16.11-18.16-38.33-28.42-62.59-28.85
			c-23.92-0.89-46.83,9-63.57,26.56l-7.73,8.12c-23.74,24.91-30.54,60.87-17.31,91.64c17.5,40.73,38,80.55,60.94,118.39
			c40.85,67.42,90.04,129.81,146.23,185.39C411.22,796.22,484.41,852,562.96,898.3c36.29,21.38,74.12,40.97,112.41,58.23
			c30.04,13.51,65.65,8.41,90.8-12.98c20.01-17.03,30.7-38.99,31.67-63.17s-7.93-46.93-25.03-64.03l-37.77-37.77
			c-26.91-26.89-67.48-32.9-101.06-14.93l-40.24,21.55c-17.35,9.32-38.92,2.76-48.18-14.57c-9.28-17.33-2.76-38.9,14.57-48.18
			l40.24-21.55c61.36-32.94,135.75-21.92,185.01,27.34l37.77,37.77c30.87,30.87,47.57,73.59,45.84,117.22
			c-1.76,43.63-21.83,84.88-55.07,113.17C783.9,1021.96,746.88,1035.08,709.82,1035.08z"/>
	</g>
	<g>
		<path d="M801.56,550.44c-18.55,0-34.19-14.37-35.48-33.15c-1.77-25.67-11.63-91.34-64.85-146.44
			c-47.71-49.42-104.1-64.17-133.44-68.57c-19.45-2.9-32.85-21.03-29.93-40.46c2.92-19.45,21.28-33.06,40.46-29.93
			c38.29,5.74,111.8,24.98,174.11,89.5c69.49,71.96,82.37,157.55,84.67,191.01c1.36,19.62-13.45,36.61-33.06,37.96
			C803.21,550.4,802.38,550.44,801.56,550.44z"/>
	</g>
	<g>
		<path d="M983.77,511.23c-18.55,0-34.19-14.37-35.48-33.15c-2.97-43.26-19.59-153.9-109.3-246.79
			c-80.39-83.24-175.42-108.13-224.9-115.55c-19.43-2.92-32.83-21.03-29.91-40.48c2.9-19.45,21.21-32.92,40.48-29.91
			c58.4,8.76,170.55,38.14,265.54,136.48c105.99,109.75,125.6,240.32,129.11,291.35c1.36,19.62-13.45,36.62-33.06,37.96
			C985.42,511.19,984.59,511.23,983.77,511.23z"/>
	</g>
</g>
</svg>
