<svg width="70" height="70" viewBox="0 0 70 70" fill="none" xmlns="http://www.w3.org/2000/svg">
<rect x="0.5" y="0.5" width="69" height="69" stroke="white"/>
<g clip-path="url(#clip0_36_217)">
<path d="M18 46.511C21.8761 46.7755 25.3497 45.8439 28.5127 43.463C25.1886 43.1525 23.0148 41.4847 21.7726 38.4022C22.8653 38.4022 23.8774 38.4022 24.8896 38.4022C24.8896 38.3677 24.9011 38.3217 24.9011 38.2872C21.4045 37.1945 19.5297 34.8367 19.2422 31.0871C20.3004 31.5932 21.301 31.9497 22.4857 31.9612C20.6684 30.489 19.5297 28.7062 19.3457 26.4173C19.2307 24.9796 19.6103 23.6454 20.3349 22.3342C24.2455 26.9004 29.1222 29.4653 35.0572 29.8449C35.0572 29.0398 35.0112 28.2921 35.0687 27.556C35.3677 23.8294 38.5767 20.9425 42.3493 21C44.2701 21.0345 45.9264 21.7246 47.3066 23.0588C47.4791 23.2198 47.6287 23.2773 47.8702 23.2198C49.2159 22.8863 50.5041 22.4262 51.7118 21.7591C51.7923 21.7131 51.8613 21.6786 51.9418 21.6441C51.9648 21.6326 51.9878 21.6556 52.0684 21.6671C51.5278 23.2773 50.5271 24.5195 49.1239 25.4397C49.1469 25.4857 49.1699 25.5317 49.1929 25.5777C50.4466 25.2327 51.7003 24.8761 53 24.5195C52.8965 24.6691 52.8045 24.8301 52.6895 24.9796C51.8728 26.1183 50.8952 27.1074 49.7795 27.9471C49.5265 28.1311 49.4574 28.3151 49.4574 28.6257C49.7105 36.6885 44.9257 44.6477 37.6451 47.8337C31.0891 50.7092 24.6135 50.3181 18.3681 46.7525C18.253 46.6835 18.1265 46.5915 18 46.511Z" fill="white"/>
</g>
<defs>
<clipPath id="clip0_36_217">
<rect width="35" height="28.7545" fill="white" transform="translate(18 21)"/>
</clipPath>
</defs>
</svg>
